<svg width="32" height="32" viewBox="0 0 32 32" fill="none" xmlns="http://www.w3.org/2000/svg">
<path d="M10.4629 10.3379C12.0124 8.78841 13.8809 8.01367 16.0684 8.01367C18.2559 8.01367 20.1016 8.78841 21.6055 10.3379C23.1549 11.8418 23.9297 13.6875 23.9297 15.875C23.9297 18.0625 23.1549 19.931 21.6055 21.4805C20.1016 22.9844 18.2559 23.7363 16.0684 23.7363C13.8809 23.7363 12.0124 22.9844 10.4629 21.4805C8.95898 19.931 8.20703 18.0625 8.20703 15.875C8.20703 13.6875 8.95898 11.8418 10.4629 10.3379ZM12.4453 19.498C13.4479 20.5007 14.6556 21.002 16.0684 21.002C17.4811 21.002 18.6888 20.5007 19.6914 19.498C20.694 18.4954 21.1953 17.2878 21.1953 15.875C21.1953 14.4622 20.694 13.2546 19.6914 12.252C18.6888 11.2493 17.4811 10.748 16.0684 10.748C14.6556 10.748 13.4479 11.2493 12.4453 12.252C11.4427 13.2546 10.9414 14.4622 10.9414 15.875C10.9414 17.2878 11.4427 18.4954 12.4453 19.498ZM25.502 6.44141C25.8665 6.76042 26.0488 7.17057 26.0488 7.67188C26.0488 8.17318 25.8665 8.60612 25.502 8.9707C25.1829 9.33529 24.7728 9.51758 24.2715 9.51758C23.7702 9.51758 23.3372 9.33529 22.9727 8.9707C22.6081 8.60612 22.4258 8.17318 22.4258 7.67188C22.4258 7.17057 22.6081 6.76042 22.9727 6.44141C23.3372 6.07682 23.7702 5.89453 24.2715 5.89453C24.7728 5.89453 25.1829 6.07682 25.502 6.44141ZM31.3125 9.58594C31.3581 10.8164 31.3809 12.9128 31.3809 15.875C31.3809 18.8372 31.3581 20.9336 31.3125 22.1641C31.1758 24.944 30.3327 27.1087 28.7832 28.6582C27.2793 30.1621 25.1374 30.9596 22.3574 31.0508C21.127 31.1419 19.0306 31.1875 16.0684 31.1875C13.1061 31.1875 11.0098 31.1419 9.7793 31.0508C6.99935 30.9141 4.85742 30.0938 3.35352 28.5898C2.76107 28.043 2.28255 27.4049 1.91797 26.6758C1.55339 25.9466 1.27995 25.2402 1.09766 24.5566C0.960938 23.873 0.892578 23.0755 0.892578 22.1641C0.801432 20.9336 0.755859 18.8372 0.755859 15.875C0.755859 12.9128 0.801432 10.7936 0.892578 9.51758C1.0293 6.7832 1.84961 4.66406 3.35352 3.16016C4.85742 1.61068 6.99935 0.767578 9.7793 0.630859C11.0098 0.585286 13.1061 0.5625 16.0684 0.5625C19.0306 0.5625 21.127 0.585286 22.3574 0.630859C25.1374 0.767578 27.2793 1.61068 28.7832 3.16016C30.3327 4.66406 31.1758 6.80599 31.3125 9.58594ZM28.0312 24.8984C28.168 24.5339 28.2819 24.0781 28.373 23.5312C28.4642 22.9388 28.5326 22.2552 28.5781 21.4805C28.6237 20.6602 28.6465 19.9993 28.6465 19.498C28.6465 18.9967 28.6465 18.2904 28.6465 17.3789C28.6465 16.4674 28.6465 15.9661 28.6465 15.875C28.6465 15.7383 28.6465 15.237 28.6465 14.3711C28.6465 13.4596 28.6465 12.7533 28.6465 12.252C28.6465 11.7507 28.6237 11.1126 28.5781 10.3379C28.5326 9.51758 28.4642 8.83398 28.373 8.28711C28.2819 7.69466 28.168 7.21615 28.0312 6.85156C27.4844 5.4388 26.5046 4.45898 25.0918 3.91211C24.7272 3.77539 24.2487 3.66146 23.6562 3.57031C23.1094 3.47917 22.4258 3.41081 21.6055 3.36523C20.8307 3.31966 20.1927 3.29688 19.6914 3.29688C19.2357 3.29688 18.5293 3.29688 17.5723 3.29688C16.6608 3.29688 16.1595 3.29688 16.0684 3.29688C15.9772 3.29688 15.4759 3.29688 14.5645 3.29688C13.653 3.29688 12.9466 3.29688 12.4453 3.29688C11.944 3.29688 11.2832 3.31966 10.4629 3.36523C9.68815 3.41081 9.00456 3.47917 8.41211 3.57031C7.86523 3.66146 7.40951 3.77539 7.04492 3.91211C5.63216 4.45898 4.65234 5.4388 4.10547 6.85156C3.96875 7.21615 3.85482 7.69466 3.76367 8.28711C3.67253 8.83398 3.60417 9.51758 3.55859 10.3379C3.51302 11.1126 3.49023 11.7507 3.49023 12.252C3.49023 12.7077 3.49023 13.4141 3.49023 14.3711C3.49023 15.2826 3.49023 15.7839 3.49023 15.875C3.49023 16.0573 3.49023 16.4902 3.49023 17.1738C3.49023 17.8118 3.49023 18.3587 3.49023 18.8145C3.49023 19.2246 3.49023 19.7715 3.49023 20.4551C3.53581 21.1387 3.58138 21.7311 3.62695 22.2324C3.67253 22.6882 3.74089 23.1667 3.83203 23.668C3.92318 24.1693 4.01432 24.5794 4.10547 24.8984C4.69792 26.3112 5.67773 27.291 7.04492 27.8379C7.40951 27.9746 7.86523 28.0885 8.41211 28.1797C9.00456 28.2708 9.68815 28.3392 10.4629 28.3848C11.2832 28.4303 11.9212 28.4531 12.377 28.4531C12.8783 28.4531 13.5846 28.4531 14.4961 28.4531C15.4531 28.4531 15.9772 28.4531 16.0684 28.4531C16.2051 28.4531 16.7064 28.4531 17.5723 28.4531C18.4837 28.4531 19.1901 28.4531 19.6914 28.4531C20.1927 28.4531 20.8307 28.4303 21.6055 28.3848C22.4258 28.3392 23.1094 28.2708 23.6562 28.1797C24.2487 28.0885 24.7272 27.9746 25.0918 27.8379C26.5046 27.2454 27.4844 26.2656 28.0312 24.8984Z" fill="#26235C"/>
</svg>
